<svg width="337.4" height="337.4" fill="none" version="1.1" viewBox="0 0 337.4 337.4" xmlns="http://www.w3.org/2000/svg">
<g transform="translate(40.39 11.251)" clip-path="url(#clip0_13_108)">
<mask id="mask0_13_108" x="4" y="-4" width="289" height="290" maskUnits="userSpaceOnUse">
<path d="m292.53-3.0015h-288v288h288z" fill="#fff"/>
</mask>
<g mask="url(#mask0_13_108)">
<path d="m26.566 81.999v22.885l128.54 136.94 21.04 2.861 43.002-5.168 67.087-69.024v-28.699l-120.43-123.01-47.155-17.533-21.316 2.9529z" fill="#8f8f8f"/>
</g>
<mask id="mask1_13_108" x="-3" y="5" width="289" height="289" maskUnits="userSpaceOnUse">
<path d="m285.5 5.0369h-288v288h288z" fill="#fff"/>
</mask>
<g mask="url(#mask1_13_108)">
<path d="m17.108 265.01c-10.822-11.528-14.308-20.027-7.9656-19.431 6.3354 0.602 19.685 10.041 30.507 21.568 10.822 11.528 14.308 20.028 7.9728 19.432-6.3426-0.603-19.693-10.041-30.514-21.569z" fill="#a6a6a6"/>
</g>
<mask id="mask2_13_108" x="-3" y="5" width="289" height="289" maskUnits="userSpaceOnUse">
<path d="m285.5 5.0369h-288v288h288z" fill="#fff"/>
</mask>
<g mask="url(#mask2_13_108)">
<path d="m53.321 287.52c-1.4278 2.271-4.0605 2.65-6.0192 2.466-2.2041-0.21-4.6744-1.128-7.1257-2.347-2.5121-1.249-5.2671-2.947-8.1078-4.954-5.6824-4.017-11.898-9.413-17.457-15.334-5.4888-5.847-9.417-11.223-11.092-15.307-0.76452-1.865-1.4698-4.418-0.4613-6.693 0.39712-0.896 0.95233-1.561 1.5934-2.047l12.848-14.107 48.614 44.276z" clip-rule="evenodd" fill="url(#paint0_linear_13_108)" fill-rule="evenodd"/>
</g>
<mask id="mask3_13_108" x="-3" y="5" width="289" height="289" maskUnits="userSpaceOnUse">
<path d="m285.5 5.0369h-288v288h288z" fill="#fff"/>
</mask>
<g mask="url(#mask3_13_108)">
<path d="m30.534 250.27c-10.822-11.528-14.308-20.027-7.9729-19.425 6.3427 0.603 19.692 10.035 30.514 21.562 10.822 11.534 14.308 20.035 7.9728 19.432-6.3426-0.603-19.692-10.034-30.514-21.569z" stroke="url(#paint1_linear_13_108)" stroke-linecap="round" stroke-linejoin="round" stroke-width="6.8496"/>
</g>
<mask id="mask4_13_108" x="4" y="-4" width="289" height="290" maskUnits="userSpaceOnUse">
<path d="m292.53-3.0015h-288v288h288z" fill="#fff"/>
</mask>
<g mask="url(#mask4_13_108)">
<path d="m65.498 267.83c-0.4176 0.839-1.3776 1.23-2.9161 1.085-6.336-0.603-19.686-10.041-30.507-21.569-9.144-9.733-13.052-17.309-10.228-19.068l53.103-58.598 43.549 39.666z" clip-rule="evenodd" fill="url(#paint2_linear_13_108)" fill-rule="evenodd"/>
</g>
<mask id="mask5_13_108" x="4" y="-4" width="289" height="290" maskUnits="userSpaceOnUse">
<path d="m292.53-3.0015h-288v288h288z" fill="#fff"/>
</mask>
<g mask="url(#mask5_13_108)">
<path d="m85.452 188.45c10.822 11.533 24.171 20.965 30.508 21.568 6.342 0.603 2.856-7.897-7.966-19.432-10.822-11.527-24.172-20.959-30.515-21.562-6.3354-0.603-2.8494 7.898 7.9729 19.426z" fill="#a56c4a"/>
</g>
<mask id="mask6_13_108" x="4" y="-4" width="289" height="290" maskUnits="userSpaceOnUse">
<path d="m292.53-3.0015h-288v288h288z" fill="#fff"/>
</mask>
<g mask="url(#mask6_13_108)">
<path d="m121.4 208.71c-0.926 1.575-2.744 1.948-4.476 1.786-1.895-0.18-4.142-0.991-6.524-2.175-2.412-1.2-5.09-2.847-7.881-4.819-5.5828-3.947-11.712-9.266-17.197-15.108-5.4498-5.805-9.2022-10.997-10.756-14.783-0.7404-1.805-1.1838-3.764-0.483-5.347 0.2784-0.628 0.6786-1.097 1.1574-1.438l12.976-14.255 46.092 41.959z" clip-rule="evenodd" fill="url(#paint3_linear_13_108)" fill-rule="evenodd"/>
</g>
<mask id="mask7_13_108" x="4" y="-4" width="289" height="290" maskUnits="userSpaceOnUse">
<path d="m292.53-3.0015h-288v288h288z" fill="#fff"/>
</mask>
<g mask="url(#mask7_13_108)">
<path d="m99.996 172.49c10.822 11.528 24.172 20.959 30.514 21.562 6.336 0.603 2.85-7.897-7.973-19.432-10.821-11.527-24.171-20.959-30.513-21.561-6.3354-0.603-2.8494 7.897 7.9729 19.431z" fill="#9e9e9e" stroke="#9e9e9e" stroke-linecap="round" stroke-linejoin="round" stroke-width="3.4247"/>
</g>
<mask id="mask8_13_108" x="4" y="-4" width="289" height="290" maskUnits="userSpaceOnUse">
<path d="m292.53-3.0015h-288v288h288z" fill="#fff"/>
</mask>
<g mask="url(#mask8_13_108)">
<path d="m287.46 141.96v1.023l-40.503-3.867-130.18-138.34 1.348-0.77029 47.745 17.687z" fill="url(#paint4_linear_13_108)"/>
</g>
<mask id="mask9_13_108" x="4" y="-4" width="289" height="290" maskUnits="userSpaceOnUse">
<path d="m292.53-3.0015h-288v288h288z" fill="#fff"/>
</mask>
<g mask="url(#mask9_13_108)">
<path d="m219.59 240.86-43.292 5.013-0.37-0.268 71.412-78.726h0.422l39.709 3.529v0.542z" fill="#b6b6b6"/>
</g>
<mask id="mask10_13_108" x="4" y="-4" width="289" height="290" maskUnits="userSpaceOnUse">
<path d="m292.53-3.0015h-288v288h288z" fill="#fff"/>
</mask>
<g mask="url(#mask10_13_108)">
<path d="m96.834 2.8933 21.288-2.8896 1.58 1.8192-24.009 13.01z" fill="#e5e5e5"/>
</g>
<mask id="mask11_13_108" x="4" y="-4" width="289" height="290" maskUnits="userSpaceOnUse">
<path d="m292.53-3.0015h-288v288h288z" fill="#fff"/>
</mask>
<g mask="url(#mask11_13_108)">
<path d="m25.25 92.625-5e-4 12.047 129.76 138.24 0.621 0.114v-14.812l-129.77-136.24z" fill="#8b8a8b"/>
</g>
<mask id="mask12_13_108" x="4" y="-4" width="289" height="290" maskUnits="userSpaceOnUse">
<path d="m292.53-3.0015h-288v288h288z" fill="#fff"/>
</mask>
<g mask="url(#mask12_13_108)">
<path d="m96.84 2.866-71.592 78.595v12.644l71.598-78.481z" fill="#e2e1e1"/>
</g>
<mask id="mask13_13_108" x="4" y="-4" width="289" height="290" maskUnits="userSpaceOnUse">
<path d="m292.53-3.0015h-288v288h288z" fill="#fff"/>
</mask>
<g mask="url(#mask13_13_108)">
<path d="m25.25 92.529v8.8592l3.796-4.7575z" fill="#8b8a8b"/>
</g>
<mask id="mask14_13_108" x="4" y="-4" width="289" height="290" maskUnits="userSpaceOnUse">
<path d="m292.53-3.0015h-288v288h288z" fill="#fff"/>
</mask>
<g mask="url(#mask14_13_108)">
<path d="m96.84 2.8933 21.288-2.8896-21.288 13.993z" fill="#e5e5e5"/>
</g>
<mask id="mask15_13_108" x="4" y="-4" width="289" height="290" maskUnits="userSpaceOnUse">
<path d="m292.53-3.0015h-288v288h288z" fill="#fff"/>
</mask>
<g mask="url(#mask15_13_108)">
<path d="m98.142 13.241-1.239 0.7786-71.658 78.576 130.81 139.28 72.672-79.699z" fill="url(#paint5_linear_13_108)"/>
</g>
<mask id="mask16_13_108" x="4" y="-4" width="289" height="290" maskUnits="userSpaceOnUse">
<path d="m292.53-3.0015h-288v288h288z" fill="#fff"/>
</mask>
<g mask="url(#mask16_13_108)">
<path d="m165.15 102.28-29.144-20.719c-0.479-0.336-1.117-0.2808-1.548 0.1368l-26.823 26.2c-0.63 0.623-0.541 1.712 0.172 2.184l8.349 5.507c0.788 0.521 0.802 1.74 0.028 2.302l-11.884 8.691c-0.802 0.583-0.747 1.877 0.102 2.35l5.459 3.068c0.85 0.473 0.905 1.761 0.104 2.35l-18.713 13.609c-1.1712 0.85-0.4038 2.802 0.966 2.466l0.9108-0.226 59.494-22.356c0.993-0.377 1.178-1.815 0.309-2.439l-8.336-5.959c-0.781-0.561-0.726-1.829 0.103-2.335l20.356-12.493c0.829-0.507 0.884-1.775 0.096-2.336z" fill="url(#paint6_linear_13_108)"/>
</g>
<mask id="mask17_13_108" x="4" y="-4" width="289" height="290" maskUnits="userSpaceOnUse">
<path d="m292.53-3.0015h-288v288h288z" fill="#fff"/>
</mask>
<g mask="url(#mask17_13_108)">
<path d="m176.3 245.87-21.288-2.894v-12.326l0.249-0.257 21.381 15.193z" fill="#939493"/>
</g>
<mask id="mask18_13_108" x="4" y="-4" width="289" height="290" maskUnits="userSpaceOnUse">
<path d="m292.53-3.0015h-288v288h288z" fill="#fff"/>
</mask>
<g mask="url(#mask18_13_108)">
<path d="m247.89 138.24-21.288 13.993-129.76-138.23 21.288-13.993z" fill="url(#paint7_linear_13_108)"/>
</g>
<mask id="mask19_13_108" x="4" y="-4" width="289" height="290" maskUnits="userSpaceOnUse">
<path d="m292.53-3.0015h-288v288h288z" fill="#fff"/>
</mask>
<g mask="url(#mask19_13_108)">
<path d="m287.45 170.96-39.987-3.7v-29.035l39.987 3.694z" fill="#f2f2f2"/>
</g>
<mask id="mask20_13_108" x="4" y="-4" width="289" height="290" maskUnits="userSpaceOnUse">
<path d="m292.53-3.0015h-288v288h288z" fill="#fff"/>
</mask>
<g mask="url(#mask20_13_108)">
<path d="m247.86 167.25-71.562 78.619-21.322-15.057 71.838-78.774 21.047 14.696z" fill="#9b9b9b"/>
</g>
<mask id="mask21_13_108" x="4" y="-4" width="289" height="290" maskUnits="userSpaceOnUse">
<path d="m292.53-3.0015h-288v288h288z" fill="#fff"/>
</mask>
<g mask="url(#mask21_13_108)">
<path d="m247.89 167.27v-29.034l-0.17-0.239-21.257 14.015 0.139 0.217z" fill="#a7a6a7"/>
</g>
<mask id="mask22_13_108" x="4" y="-4" width="289" height="290" maskUnits="userSpaceOnUse">
<path d="m292.53-3.0015h-288v288h288z" fill="#fff"/>
</mask>
<g mask="url(#mask22_13_108)">
<path d="m165.75 103.4c0 0.379-0.259 0.937-0.582 1.135l-20.503 12.549c-0.054 0.053-0.126 0.126-0.203 0.212-0.173 0.197-0.316 0.406-0.37 0.572-0.171 0.516-0.012 1.098 0.234 1.389l8.433 6.022 0.034 0.032c0.077 0.074 0.236 0.14 0.303 0.222 0.095 0.113 0.423 0.482 0.399 0.977-0.023 0.495-0.207 1.059-0.702 1.245l-59.65 22.407c-0.354 0.133-1.1952 0.422-1.5234 0.258-0.3282-0.165-0.7734-0.328-0.7734-0.657l61.176-23.253c-0.017-0.027-0.04-0.057-0.067-0.089-0.028-0.034-0.056-0.064-0.076-0.086 0 0-8.447-6.268-8.618-6.386-0.172-0.119-0.473-0.514-0.586-1.086-0.028-0.384-0.04-0.959 0.113-1.424 0.143-0.433 0.434-0.81 0.644-1.048 0.112-0.127 0.216-0.231 0.293-0.305 0.038-0.037 0.07-0.066 0.093-0.087l0.029-0.025 8e-3 -8e-3 5e-3 -4e-3c0.066-0.057 0.141-0.099 0.218-0.126l21.256-13.134c0.322-0.198 0.415 0.32 0.415 0.698z" clip-rule="evenodd" fill="#fff" fill-rule="evenodd" opacity=".5"/>
</g>
<mask id="mask23_13_108" x="4" y="-4" width="289" height="290" maskUnits="userSpaceOnUse">
<path d="m292.53-3.0015h-288v288h288z" fill="#fff"/>
</mask>
<g mask="url(#mask23_13_108)">
<path d="m248.06 166.52-20.844-14.628" opacity=".3" stroke="#fff" stroke-linecap="round" stroke-width="1.3699"/>
</g>
<mask id="mask24_13_108" x="4" y="-4" width="289" height="290" maskUnits="userSpaceOnUse">
<path d="m292.53-3.0015h-288v288h288z" fill="#fff"/>
</mask>
<g mask="url(#mask24_13_108)">
<path d="m173.76 59.423 34.78 73.777 18.11 19.048 21.305-14.04z" fill="url(#paint8_linear_13_108)"/>
</g>
<mask id="mask25_13_108" x="-3" y="5" width="289" height="289" maskUnits="userSpaceOnUse">
<path d="m285.5 5.0369h-288v288h288z" fill="#fff"/>
</mask>
<g mask="url(#mask25_13_108)">
<path d="m22.205 227.97c0 1.196 0.0908 1.441 0.421 2.669 0.2664 0.991 0.7962 2.501 1.8478 4.49 2.1038 3.978 6.2995 9.876 14.66 17.354 8.3677 7.484 14.827 11.343 19.156 13.33 2.1642 0.993 3.7974 1.519 4.872 1.795 0.5376 0.138 0.936 0.214 1.1916 0.255 0.4176 0.066 0.7362 0.037 1.107 0.037-0.2718 0.453-1.029 1.364-1.3494 1.698-0.3204 0.333-1.1922 0.091-1.5468 0-1.1982-0.308-2.8602-0.875-5.1314-1.917-4.5426-2.085-11.172-6.067-19.669-13.667-8.5045-7.606-12.868-13.69-15.107-17.925-1.12-2.118-1.7077-3.771-2.0158-4.917-0.1541-0.573-0.1722-0.709-0.2179-1.022-0.1219-0.835 1.0192-1.742 1.7812-2.18z" clip-rule="evenodd" fill="#e4e4e4" fill-rule="evenodd"/>
</g>
</g>
<defs>
<linearGradient id="paint0_linear_13_108" x1="7.7366" x2="55.768" y1="240.47" y2="284.46" gradientUnits="userSpaceOnUse">
<stop stop-color="#C4C4C4" offset="0"/>
<stop stop-color="#F8F8F8" offset=".25"/>
<stop stop-color="#A6A6A6" offset=".46763"/>
<stop stop-color="#B8B8B8" offset=".68"/>
<stop stop-color="#A9AAA9" offset="1"/>
</linearGradient>
<linearGradient id="paint1_linear_13_108" x1="17.08" x2="64" y1="230.15" y2="275.48" gradientUnits="userSpaceOnUse">
<stop stop-color="#C4C4C4" offset="0"/>
<stop stop-color="#F8F8F8" offset=".25754"/>
<stop stop-color="#A6A6A6" offset=".46864"/>
<stop stop-color="#B8B8B8" offset=".67922"/>
<stop stop-color="#A9AAA9" offset="1"/>
</linearGradient>
<linearGradient id="paint2_linear_13_108" x1="53.365" x2="94.459" y1="198.64" y2="236.31" gradientUnits="userSpaceOnUse">
<stop stop-color="#A67333" offset="0"/>
<stop stop-color="#AE7C3F" offset=".235"/>
<stop stop-color="#C6832F" offset=".47"/>
<stop stop-color="#E3983D" offset=".715"/>
<stop stop-color="#E79934" offset="1"/>
</linearGradient>
<linearGradient id="paint3_linear_13_108" x1="73.735" x2="114.28" y1="167.69" y2="210.53" gradientUnits="userSpaceOnUse">
<stop stop-color="#D5D5D4" offset="0"/>
<stop stop-color="#7D7E7C" offset=".49"/>
<stop stop-color="#838283" offset="1"/>
</linearGradient>
<linearGradient id="paint4_linear_13_108" x1="152.68" x2="279.39" y1=".0036399" y2="143.84" gradientUnits="userSpaceOnUse">
<stop stop-color="#AFAFAF" offset="0"/>
<stop stop-color="#BFBEBF" offset="1"/>
</linearGradient>
<linearGradient id="paint5_linear_13_108" x1="104.74" x2="169.81" y1="30.826" y2="212.33" gradientUnits="userSpaceOnUse">
<stop stop-color="#BABAB9" offset="0"/>
<stop stop-color="#8F8F8F" offset="1"/>
</linearGradient>
<linearGradient id="paint6_linear_13_108" x1="162.96" x2="87.613" y1="102.74" y2="133.56" gradientUnits="userSpaceOnUse">
<stop stop-color="#FBCC56" offset="0"/>
<stop stop-color="#FEAD01" offset="1"/>
</linearGradient>
<linearGradient id="paint7_linear_13_108" x1="115.01" x2="234.87" y1=".0036398" y2="136.99" gradientUnits="userSpaceOnUse">
<stop stop-color="#E4E3E4" offset="0"/>
<stop stop-color="#ADADAC" offset="1"/>
</linearGradient>
<linearGradient id="paint8_linear_13_108" x1="210.91" x2="210.91" y1="59.423" y2="152.35" gradientUnits="userSpaceOnUse">
<stop stop-color="#C3C3C3" offset="0"/>
<stop stop-color="#AAAAA9" offset="1"/>
</linearGradient>
<clipPath id="clip0_13_108">
<rect width="290.03" height="290.03" fill="#fff"/>
</clipPath>
</defs>
</svg>
